<svg width="800" height="650" viewBox="0 0 800 650" fill="none" xmlns="http://www.w3.org/2000/svg">
  <defs>
    <filter id="premiumShadow" x="-20%" y="-20%" width="140%" height="140%">
      <feDropShadow dx="0" dy="15" stdDeviation="20" flood-color="#4A2A1E" flood-opacity="0.22"/>
    </filter>
    <filter id="softGlow" x="-50%" y="-50%" width="200%" height="200%">
      <feGaussianBlur stdDeviation="10" result="blur"/>
      <feMerge><feMergeNode in="blur"/><feMergeNode in="SourceGraphic"/></feMerge>
    </filter>
    <linearGradient id="agedPaper" x1="0" y1="0" x2="1" y2="1">
      <stop offset="0%" stop-color="#FDF5E8"/>
      <stop offset="100%" stop-color="#E8D0B0"/>
    </linearGradient>
    <radialGradient id="goldGlow" cx="50%" cy="50%" r="50%">
      <stop offset="0%" stop-color="#F4C430" stop-opacity="0.4"/>
      <stop offset="100%" stop-color="#F4C430" stop-opacity="0"/>
    </radialGradient>
    <linearGradient id="quillGrad" x1="0" y1="0" x2="0" y2="1">
      <stop offset="0%" stop-color="#A67B5B"/>
      <stop offset="100%" stop-color="#683B2B"/>
    </linearGradient>
  </defs>

  <g filter="url(#premiumShadow)">
    <rect x="180" y="80" width="420" height="500" rx="4" fill="#E8D1B5" transform="rotate(12 390 330)"/>
    <rect x="200" y="60" width="380" height="480" rx="2" fill="url(#agedPaper)" transform="rotate(-5 390 300)"/>
    <rect x="250" y="40" width="340" height="450" rx="1" fill="#FAF6F2" transform="rotate(2 420 265)"/>
    
    <g transform="rotate(2 420 265) translate(300, 150)">
      <text font-family="serif" font-size="34" fill="#683B2B" font-style="italic" opacity="0.75">Stories are</text>
      <text x="25" y="55" font-family="serif" font-size="34" fill="#683B2B" font-style="italic" opacity="0.75">the keys to</text>
      <text x="50" y="110" font-family="serif" font-size="34" fill="#683B2B" font-style="italic" opacity="0.75">our hearts.</text>
      <path d="M160 170 Q160 155 175 155 Q190 155 190 170 Q190 190 160 210 Q130 190 130 170 Q130 155 145 155 Q160 155 160 170Z" 
            fill="none" stroke="#D49E8D" stroke-width="2.5" opacity="0.5"/>
    </g>
  </g>

  <g stroke="#5A7040" stroke-width="1.2" opacity="0.6">
    <path d="M150 550 Q170 450 140 350" fill="none"/>
    <circle cx="140" cy="350" r="3.5" fill="white" stroke="#E8D0B0" stroke-width="0.3"/>
  </g>

  <g filter="url(#premiumShadow)">
    <path d="M640 460 Q640 500 680 505 Q720 505 740 495 L740 410 Q710 400 680 405 Q640 410 640 460 Z" fill="#0F0A06"/>
    <ellipse cx="690" cy="410" rx="45" ry="18" fill="#1A120B"/>
    <ellipse cx="690" cy="405" rx="28" ry="12" fill="#B08D57" stroke="#8B6A40" stroke-width="1"/>
    
    <g transform="rotate(-18 690 400)">
      <path d="M690 400 Q705 250 780 80" stroke="#3D2510" stroke-width="4" stroke-linecap="round"/>
      <path d="M780 80 Q730 110 710 230 Q720 320 690 400 Q680 340 660 230 Q670 110 780 80" fill="url(#quillGrad)" opacity="0.95"/>
    </g>
  </g>

  <g transform="translate(450, 480) rotate(-35)">
    <circle cx="0" cy="0" r="18" fill="none" stroke="#D4B896" stroke-width="4.5"/>
    <rect x="-2.5" y="18" width="5" height="70" fill="#D4B896"/>
    <rect x="2.5" y="65" width="15" height="5" rx="1" fill="#D4B896"/>
    <circle cx="0" cy="0" r="30" fill="url(#goldGlow)"/>
  </g>
</svg>
